<?xml version="1.0" standalone="no"?>
<!DOCTYPE svg PUBLIC "-//W3C//DTD SVG 20010904//EN"
 "http://www.w3.org/TR/2001/REC-SVG-20010904/DTD/svg10.dtd">
<svg version="1.0" xmlns="http://www.w3.org/2000/svg"
 width="500.000000pt" height="499.000000pt" viewBox="0 0 500.000000 499.000000"
 preserveAspectRatio="xMidYMid meet">
<metadata>
Created by potrace 1.16, written by Peter Selinger 2001-2019
</metadata>
<g transform="translate(0.000000,499.000000) scale(0.100000,-0.100000)"
fill="#000000" stroke="none">
<path d="M0 2495 l0 -2495 2500 0 2500 0 0 2495 0 2495 -2500 0 -2500 0 0
-2495z m1183 1840 c171 -44 289 -175 319 -351 11 -68 3 -136 -25 -204 -4 -10
19 -42 66 -94 64 -68 76 -77 93 -68 11 5 55 47 99 92 128 131 231 196 407 258
147 52 240 65 428 59 136 -4 180 -9 253 -30 178 -51 321 -135 471 -276 54 -51
104 -91 111 -89 7 2 45 33 84 70 l70 67 -13 38 c-51 145 -14 315 92 419 134
132 340 161 497 70 79 -47 118 -102 139 -196 5 -19 23 -33 84 -62 91 -43 132
-81 169 -158 23 -48 27 -68 27 -150 0 -84 -3 -102 -29 -155 -40 -84 -135 -176
-211 -205 -83 -30 -173 -39 -276 -27 -85 11 -87 10 -126 -15 -35 -23 -204
-198 -237 -245 -12 -18 -6 -19 154 -20 263 -2 363 -28 401 -104 32 -61 25
-152 -13 -185 -45 -39 -98 -47 -237 -38 -153 9 -296 11 -304 3 -3 -3 -12 -41
-20 -85 -33 -189 -149 -404 -315 -584 l-50 -55 167 -165 c93 -91 191 -186 218
-213 l50 -47 54 17 c79 24 202 22 260 -4 110 -50 182 -134 225 -262 43 -126
27 -268 -37 -342 -30 -34 -93 -72 -144 -87 -38 -11 -43 -17 -69 -77 -94 -222
-429 -276 -604 -96 -90 93 -108 169 -87 368 7 63 6 86 -4 98 -24 29 -37 17
-43 -40 -16 -153 -152 -309 -337 -385 -195 -80 -521 -99 -720 -41 -159 46
-286 129 -359 236 -35 50 -71 146 -71 188 0 51 -13 61 -40 32 -21 -22 -23 -32
-19 -97 9 -186 5 -242 -23 -289 -80 -136 -246 -209 -410 -181 -122 21 -200 77
-252 180 -29 57 -38 65 -91 83 -22 8 -63 37 -91 64 -70 69 -89 127 -89 265 0
93 3 112 27 162 34 73 108 153 173 186 60 30 174 41 264 23 97 -19 133 4 318
211 64 71 136 144 159 162 l42 32 -30 35 c-197 232 -284 390 -323 584 -24 119
-27 121 -173 106 -136 -15 -286 -2 -359 29 -113 49 -104 188 17 254 65 35 152
48 324 45 144 -2 151 -1 154 18 2 14 -17 37 -65 79 -37 32 -93 85 -123 117
-65 69 -88 76 -205 64 -44 -4 -107 -6 -140 -2 -129 12 -267 110 -328 234 -28
58 -32 75 -31 146 1 114 29 182 109 262 48 48 74 65 110 75 26 7 50 20 52 28
25 80 87 175 140 216 78 59 187 77 296 49z"/>
<path d="M1019 4247 c-107 -40 -165 -112 -193 -239 -5 -20 -14 -29 -34 -34
-136 -30 -209 -96 -232 -211 -9 -39 -9 -67 0 -106 39 -182 216 -274 455 -237
45 7 94 10 108 6 14 -3 83 -61 154 -128 71 -68 143 -131 160 -140 l30 -18 17
68 c9 37 41 116 71 175 65 127 67 119 -51 218 -42 35 -89 80 -105 100 -29 36
-29 39 -15 72 59 143 33 281 -72 386 -83 82 -208 120 -293 88z"/>
<path d="M3827 4246 c-83 -30 -162 -118 -193 -215 -21 -68 -15 -167 15 -237
l22 -51 -91 -89 c-50 -49 -104 -97 -121 -107 -16 -11 -29 -27 -29 -37 0 -10
29 -76 64 -147 35 -70 69 -147 76 -171 14 -52 -4 -63 192 121 l148 139 67 -13
c348 -68 595 147 467 408 -38 78 -134 143 -211 143 -13 0 -25 6 -27 13 -38
141 -73 195 -147 232 -39 20 -63 25 -121 25 -40 -1 -90 -7 -111 -14z"/>
<path d="M2365 3931 c-311 -50 -573 -230 -739 -505 -55 -92 -57 -90 92 -82 70
3 486 6 925 6 910 1 824 -10 760 99 -79 135 -288 324 -436 395 -135 65 -233
87 -402 91 -82 2 -173 0 -200 -4z"/>
<path d="M1054 2960 c-69 -14 -110 -36 -139 -75 -21 -27 -25 -39 -16 -44 21
-13 221 -16 1161 -16 980 0 2073 16 2089 31 2 1 0 15 -3 29 -9 37 -50 72 -92
79 -19 4 -272 5 -562 2 -856 -9 -2116 -12 -2262 -4 -74 4 -153 3 -176 -2z"/>
<path d="M1783 2763 c-182 -2 -313 -7 -313 -12 0 -6 6 -40 14 -78 37 -172 121
-345 240 -493 88 -108 141 -152 280 -235 163 -96 317 -131 546 -122 303 11
528 101 706 283 85 87 151 182 203 296 44 96 96 252 105 321 l7 47 -738 -2
c-406 -2 -879 -4 -1050 -5z m452 -98 c172 -85 175 -406 5 -492 -57 -29 -192
-33 -243 -7 -107 54 -160 136 -165 254 -3 66 0 81 25 130 32 63 84 104 159
125 67 19 169 14 219 -10z m830 0 c98 -47 174 -173 160 -265 -11 -74 -35 -118
-91 -169 -107 -98 -235 -108 -351 -29 -127 86 -146 307 -36 409 59 55 125 79
213 75 39 -1 81 -10 105 -21z m-456 -539 c38 -20 55 -60 39 -94 -19 -38 -55
-54 -110 -48 -86 9 -157 60 -141 101 17 45 154 71 212 41z"/>
<path d="M3152 1939 c-24 -12 -46 -28 -49 -35 -2 -7 16 -72 41 -146 25 -73 53
-179 63 -236 l18 -102 102 -102 c116 -114 114 -107 87 -243 -17 -91 -12 -159
16 -214 84 -163 323 -194 461 -60 45 43 57 69 73 149 5 22 14 28 64 38 116 24
182 103 182 218 0 128 -63 227 -184 289 -71 36 -86 40 -150 39 -62 0 -98 -9
-166 -38 -11 -5 -85 61 -257 229 -133 129 -245 235 -250 235 -4 0 -28 -10 -51
-21z"/>
<path d="M1637 1749 c-111 -111 -221 -217 -244 -237 l-43 -35 -94 23 c-135 32
-210 14 -305 -75 -119 -111 -126 -312 -15 -404 37 -30 94 -51 137 -51 21 0 28
-6 32 -27 23 -111 64 -175 135 -210 35 -18 61 -23 123 -23 44 0 97 5 118 11
132 40 197 209 154 399 -21 93 -22 92 81 178 111 93 126 126 164 347 12 66 32
144 46 174 13 29 24 59 24 67 0 19 -63 64 -89 64 -16 0 -83 -60 -224 -201z"/>
<path d="M1976 1847 c-22 -34 -46 -115 -40 -131 7 -19 89 -59 170 -84 l61 -19
16 90 c9 50 16 91 14 92 -1 1 -48 18 -105 38 l-102 36 -14 -22z"/>
<path d="M2940 1831 c-108 -42 -102 -31 -76 -156 12 -58 13 -60 41 -57 39 4
174 58 202 80 l23 17 -28 77 c-22 63 -31 78 -47 77 -11 -1 -63 -18 -115 -38z"/>
<path d="M2242 1698 c-7 -46 -12 -88 -12 -94 0 -10 171 -34 240 -34 l25 0 -3
90 -3 90 -34 0 c-18 0 -69 7 -112 15 -43 8 -81 15 -84 15 -3 0 -11 -37 -17
-82z"/>
<path d="M2722 1769 c-13 -5 -55 -12 -93 -15 l-69 -7 0 -88 0 -89 28 0 c54 0
232 24 232 31 0 26 -32 155 -41 166 -13 15 -25 15 -57 2z"/>
<path d="M1886 1563 c-9 -47 -15 -87 -13 -88 53 -40 246 -141 252 -133 2 3 35
200 35 211 0 4 -10 7 -22 7 -13 0 -70 21 -127 45 -57 25 -104 45 -106 45 -2 0
-10 -39 -19 -87z"/>
<path d="M3070 1615 c-36 -19 -91 -39 -123 -46 -58 -12 -59 -12 -53 -43 3 -17
10 -64 15 -104 5 -41 11 -75 13 -78 9 -8 83 20 150 58 128 72 117 57 102 131
-13 62 -30 118 -36 117 -2 -1 -32 -16 -68 -35z"/>
<path d="M2695 1524 c-60 -6 -116 -13 -122 -13 -10 -1 -13 -33 -13 -126 0
-113 2 -125 18 -124 9 0 76 10 147 22 l130 22 3 35 c6 58 -29 203 -47 199 -3
-1 -55 -8 -116 -15z"/>
<path d="M2197 1459 c-4 -41 -9 -89 -13 -106 -6 -29 -3 -34 22 -44 49 -18 172
-39 235 -39 l59 0 0 119 0 119 -32 5 c-18 3 -85 9 -149 13 l-116 6 -6 -73z"/>
<path d="M1866 1383 c-11 -11 -6 -125 8 -190 32 -151 113 -249 261 -319 118
-55 214 -74 379 -74 176 0 290 24 416 86 155 77 236 178 259 325 12 71 14 159
5 159 -3 0 -47 -20 -96 -45 -187 -94 -351 -126 -613 -120 -272 5 -440 51 -576
157 -20 15 -39 25 -43 21z"/>
</g>
</svg>
